<?xml version="1.0" encoding="utf-8"?>
<!-- Generator: Adobe Illustrator 23.1.1, SVG Export Plug-In . SVG Version: 6.00 Build 0)  -->
<svg version="1.1" id="Lager_1" xmlns="http://www.w3.org/2000/svg" xmlns:xlink="http://www.w3.org/1999/xlink" x="0px" y="0px"
	 viewBox="0 0 1920 1080" style="enable-background:new 0 0 1920 1080;" xml:space="preserve">
<style type="text/css">
	.st0{fill:none;stroke:#000000;stroke-miterlimit:10;}
</style>
<g>
	<g>
		<path d="M218.64,214.68c1.93,0,1.93-3,0-3C216.71,211.68,216.7,214.68,218.64,214.68L218.64,214.68z"/>
	</g>
</g>
<path id="XMLID_1_" class="st0" d="M575.2,527.2c-46.51-9.68-127.85-22.98-126.96-38.55c1.61-27.98,270.18-77.24,334.24-5.21
	c75.14,84.49-142.81,321.08-203.39,303.2c-86.23-25.46,210.99-547.41-27.21-703.29c-103.6-67.8-296.61-58.58-408.08,14.59
	C39.94,166.11,28.63,275.52,22.02,353.2c-22.57,265.38,122.67,646.82,358.85,675.16c310.59,37.27,460.76-574.56,864.09-579.3
	c397.98-4.68,743.83,584.95,663.29,644.94C1816.13,1162.62,1048.68,625.79,575.2,527.2z"/>
<path id="XMLID_2_" class="st0" d="M555.15,527.67c-46.51-9.68-127.85-22.98-126.96-38.55c1.61-27.98,270.18-77.24,334.24-5.21
	c75.14,84.49-142.81,321.08-203.39,303.2c-86.23-25.46,210.99-547.41-27.21-703.29c-103.6-67.8-296.61-58.58-408.08,14.59
	C19.89,166.58,8.58,275.99,1.98,353.67c-22.57,265.38,122.67,646.82,358.85,675.16c310.59,37.27,460.76-574.56,864.09-579.3
	c397.98-4.68,743.83,584.95,663.29,644.94C1796.08,1163.08,1028.64,626.26,555.15,527.67z"/>
</svg>
